# xmcd
#
# Track frame offsets:
#	150
#	12523
#	24790
#	38476
#	52217
#	65750
#	83024
#	96756
#	110718
#	127905
#	139518
#	150885
#
# Disc length: 2192 seconds
#
# Revision: 1
# Processed by: cddbd v1.5.2PL0 Copyright (c) Steve Scherf et al.
# Submitted via: audiograbber 1.83.01
#
DISCID=8e088e0c
DTITLE=Percy Mayfield - Percy Mayfield Sings Percy Mayfield
DYEAR=1970
DGENRE=Blues
TTITLE0=Yes, You'll Play
TTITLE1=Live Today Like The Day Before
TTITLE2=Highway Is Like A Woman
TTITLE3=Painful Party
TTITLE4=You Wear Your Hair Too Long
TTITLE5=To Live The Past
TTITLE6=My Friend
TTITLE7=A Lying Woman (Not Trustworthy)
TTITLE8=To Claim It's Love
TTITLE9=My Error
TTITLE10=The Country
TTITLE11=This Time You Suffer Too
EXTD=
EXTT0=
EXTT1=
EXTT2=
EXTT3=
EXTT4=
EXTT5=
EXTT6=
EXTT7=
EXTT8=
EXTT9=
EXTT10=
EXTT11=
PLAYORDER=
